<svg version="1.1" id="Layer_1" xmlns="http://www.w3.org/2000/svg" xmlns:xlink="http://www.w3.org/1999/xlink" viewBox="0 0 600 600" xml:space="preserve">
<style type="text/css">
	.st0{display:none;fill-rule:evenodd;clip-rule:evenodd;fill:#808080;}
	.st1{fill-rule:evenodd;clip-rule:evenodd;fill:#808080;}
</style>
<path class="st0" d="M317.9,236.9V446c35.1,4,62.5,16.9,71.5,33.3H200.3c10-18.2,42.6-32,83-34.2V236.9
	c-100.1-2.6-178.7-27.3-178.7-57.4c0-31.8,87.8-57.7,196-57.7s196,25.8,196,57.7C496.7,209.6,418.1,234.3,317.9,236.9z M300.6,144.9
	c-89.2,0-161.4,15.5-161.4,34.6c0,19.1,72.3,34.6,161.4,34.6s161.4-15.5,161.4-34.6C462.1,160.4,389.8,144.9,300.6,144.9z"/>
<path class="st0" d="M412.1,478.7H190.8c-12.9,0-22.4-11-21.3-24.4l20.8-243.1c0.8-9.4,9.9-16.9,20.5-16.9h14.7
	c2.6-39.7,35.6-71.1,75.9-71.1s73.3,31.4,75.9,71.1h14.9c10.5,0,19.7,7.5,20.5,16.9l20.8,243.1C434.5,467.6,425,478.7,412.1,478.7z
	 M301.4,143.5c-29.1,0-52.7,22.3-55.3,50.8h110.7C354.1,165.9,330.5,143.5,301.4,143.5z M395.5,229.2c-0.6-8.1-8.4-14.5-17.3-14.5
	H224.7c-8.9,0-16.7,6.5-17.3,14.5l-17.6,208.1c-0.9,11.5,7.1,21,18,21h187.3c10.9,0,19-9.5,18-21L395.5,229.2z"/>
<path class="st1" d="M420.1,478.8h-23.3c-1.7,0-3.1-1.4-3.1-3.1V306.7c-6.5-6.2-11.9-6.9-11.9-6.9c0-167.3,41.5-177.4,41.5-177.4
	v110.6v13v229.6C423.2,477.4,421.8,478.8,420.1,478.8z M337.4,259.2v216.5c0,1.7-1.4,3.1-3.1,3.1H311c-1.7,0-3.1-1.4-3.1-3.1V260.8
	c-8.2-9.5-22.7-25.3-21.7-39.9c3.1-45.4,8.8-83.5,9.8-89.7v-0.9c0-0.9,0.7-1.6,1.6-1.6h3.6c0.9,0,1.6,0.7,1.6,1.6v84h8.3v-84
	c0-0.9,0.7-1.6,1.6-1.6h3.6c0.9,0,1.6,0.7,1.6,1.6v84h8.3v-84c0-0.9,0.7-1.6,1.6-1.6h3.6c0.9,0,1.6,0.7,1.6,1.6v84h8.3v-84
	c0-0.9,0.7-1.6,1.6-1.6h3.6c0.9,0,1.6,0.7,1.6,1.6v4.4c0-2.8,0-4.4,0-4.4s6.4,41,9.8,90.6C358.5,234.7,345.7,249.6,337.4,259.2z
	 M241,239.9v235.8c0,1.7-1.4,3.1-3.1,3.1h-23.3c-1.7,0-3.1-1.4-3.1-3.1V239.9c-18.7-8-32.2-30.8-32.2-57.7c0-33.6,21-60.8,46.9-60.8
	c25.9,0,46.9,27.2,46.9,60.8C273.1,209.1,259.6,231.8,241,239.9z"/>
</svg>
