<svg version="1.1" id="Layer_1" xmlns="http://www.w3.org/2000/svg" xmlns:xlink="http://www.w3.org/1999/xlink" viewBox="0 0 600 600" xml:space="preserve">
<style type="text/css">
	.st0{fill-rule:evenodd;clip-rule:evenodd;fill:#808080;}
</style>
<path class="st0" d="M317.9,236.9V446c35.1,4,62.5,16.9,71.5,33.3H200.3c10-18.2,42.6-32,83-34.2V236.9
	c-100.1-2.6-178.7-27.3-178.7-57.4c0-31.8,87.8-57.7,196-57.7s196,25.8,196,57.7C496.7,209.6,418.1,234.3,317.9,236.9z M300.6,144.9
	c-89.2,0-161.4,15.5-161.4,34.6c0,19.1,72.3,34.6,161.4,34.6s161.4-15.5,161.4-34.6C462.1,160.4,389.8,144.9,300.6,144.9z"/>
</svg>
