<svg xmlns="http://www.w3.org/2000/svg" xmlns:xlink="http://www.w3.org/1999/xlink" viewBox="0 0 617.7 530" xml:space="preserve">
<style type="text/css">
	.st0{fill:#0054A4;}
	.st1{fill:#F36C2C;}
	.st2{enable-background:new    ;}
</style>
<g>
	<path class="st0" d="M90.2,517.2v-41.1h13c3.9,0,7,1.1,9.4,3.2c2.3,2.1,3.5,5,3.5,8.5c0,2.4-0.6,4.5-1.8,6.3
		c-1.2,1.8-2.8,3.2-4.9,4s-5,1.2-8.9,1.2h-4.3v17.8L90.2,517.2L90.2,517.2z M102.2,481.4h-6.1v12.8h6.4c2.4,0,4.2-0.6,5.5-1.7
		s1.9-2.7,1.9-4.8C110,483.5,107.4,481.4,102.2,481.4z"/>
	<path class="st0" d="M157.3,517.2v-41h10.3c4.1,0,7.4,1,9.9,3.1c2.4,2.1,3.7,4.8,3.7,8.3c0,2.4-0.6,4.5-1.8,6.2s-2.9,3-5.1,3.9
		c1.3,0.9,2.6,2,3.8,3.5c1.3,1.5,3,4.1,5.3,7.8c1.4,2.3,2.6,4.1,3.4,5.3l2.2,2.9h-7l-1.8-2.7c-0.1-0.1-0.2-0.3-0.4-0.5l-1.1-1.6
		l-1.8-3l-2-3.2c-1.2-1.7-2.3-3-3.3-4s-1.9-1.7-2.7-2.2c-0.8-0.4-2.2-0.7-4.1-0.7h-1.5v17.8h-6V517.2z M164.9,481.2h-1.8v12.9h2.2
		c3,0,5-0.3,6.1-0.8s2-1.3,2.6-2.3s0.9-2.2,0.9-3.5s-0.3-2.5-1-3.5s-1.6-1.8-2.9-2.2C169.9,481.4,167.8,481.2,164.9,481.2z"/>
	<path class="st0" d="M229.7,476.2h23.2v5.2h-17.4v12.5h16.8v5.3h-16.8v12.7h17.9v5.2h-23.7V476.2z"/>
	<path class="st0" d="M329.1,476.2h5.5v41h-5.9v-31.9l-12.6,15.8H315l-12.8-15.8v31.9h-5.9v-41h5.6l13.6,16.8L329.1,476.2z"/>
	<path class="st0" d="M380.1,476.2h5.9v41h-5.9V476.2z"/>
	<path class="st0" d="M431.6,476.2h23.2v5.2h-17.4v12.5h16.8v5.3h-16.8v12.7h17.9v5.2h-23.8L431.6,476.2L431.6,476.2z"/>
	<path class="st0" d="M498.4,517.2v-41h10.3c4.1,0,7.4,1,9.9,3.1c2.4,2.1,3.7,4.8,3.7,8.3c0,2.4-0.6,4.5-1.8,6.2s-2.9,3-5.1,3.9
		c1.3,0.9,2.6,2,3.8,3.5c1.3,1.5,3,4.1,5.3,7.8c1.4,2.3,2.6,4.1,3.4,5.3l2.2,2.9h-7l-1.8-2.7c-0.1-0.1-0.2-0.3-0.4-0.5l-1.1-1.6
		l-1.8-3l-2-3.2c-1.2-1.7-2.3-3-3.3-4c-1-1-1.9-1.7-2.7-2.2s-2.2-0.7-4.1-0.7h-1.5v17.8h-6V517.2z M506,481.2h-1.8v12.9h2.2
		c3,0,5-0.3,6.1-0.8c1.1-0.5,2-1.3,2.6-2.3c0.6-1,0.9-2.2,0.9-3.5s-0.3-2.5-1-3.5s-1.6-1.8-2.9-2.2C511,481.4,508.9,481.2,506,481.2
		z"/>
</g>
<path id="SVGID_1_" class="st1" d="M285.6,373.6c0,0,135.9-75.4,264.8-9.8c0,0-39.3-33.8-99.7-41.9c-5-0.7-10.2-1.2-15.5-1.4
	C392.3,318.2,340.6,329.9,285.6,373.6"/>
<g class="st2">
	<path class="st0" d="M218,261.8c-3.1-4.3-7.2-7.4-12.3-9.4c-5.1-2-10-2.9-14.8-2.9c-6.2,0-11.8,1.1-16.8,3.4
		c-5.1,2.2-9.4,5.3-13.1,9.3c-3.7,3.9-6.5,8.5-8.4,13.8c-2,5.3-2.9,11-2.9,17.2c0,6.5,1,12.5,2.9,17.9c1.9,5.4,4.6,10,8.2,13.9
		c3.5,3.9,7.8,6.9,12.7,9c4.9,2.1,10.5,3.2,16.7,3.2c6.4,0,12.1-1.3,17-3.8c4.9-2.5,8.9-5.9,12-10l17,12
		c-5.3,6.6-11.7,11.8-19.4,15.4c-7.6,3.6-16.6,5.5-26.8,5.5c-9.3,0-17.9-1.5-25.7-4.6c-7.8-3.1-14.5-7.4-20.1-13
		c-5.6-5.6-10-12.2-13.1-19.9c-3.1-7.7-4.7-16.2-4.7-25.5c0-9.5,1.7-18.2,5-25.9c3.3-7.7,7.9-14.2,13.6-19.6
		c5.8-5.4,12.6-9.5,20.5-12.5c7.9-2.9,16.4-4.4,25.6-4.4c3.8,0,7.8,0.4,12,1.1c4.2,0.7,8.1,1.9,12,3.4c3.8,1.5,7.4,3.4,10.8,5.6
		c3.4,2.2,6.2,4.9,8.6,8.1L218,261.8z"/>
	<path class="st0" d="M247.3,233.9h42.3c7.8,0,15.6,1,23.4,3c7.9,2,14.9,5.4,21.2,10c6.3,4.7,11.4,10.8,15.3,18.4
		c3.9,7.6,5.9,17,5.9,28.2c0,10.4-2,19.4-5.9,27c-3.9,7.5-9,13.7-15.3,18.5c-6.3,4.8-13.4,8.4-21.2,10.7c-7.9,2.3-15.7,3.5-23.4,3.5
		h-42.3V233.9z M286.3,334.6c5.5,0,11-0.6,16.5-1.9c5.5-1.3,10.5-3.5,14.9-6.6c4.4-3.1,8.1-7.3,10.9-12.6c2.8-5.3,4.2-12,4.2-20.1
		c0-8.5-1.4-15.5-4.2-20.9c-2.8-5.4-6.4-9.6-10.9-12.6c-4.4-3-9.4-5.1-14.9-6.2c-5.5-1.1-11-1.7-16.5-1.7h-17.7v82.6H286.3z"/>
	<path class="st0" d="M368.5,293.2c0-9.5,1.6-18.2,4.8-25.9c3.2-7.7,7.6-14.2,13.3-19.6c5.7-5.4,12.4-9.5,20.2-12.5
		c7.8-2.9,16.3-4.4,25.5-4.4c9.3,0,17.9,1.5,25.8,4.4c7.9,2.9,14.7,7.1,20.4,12.5s10.2,11.9,13.4,19.6c3.2,7.7,4.8,16.3,4.8,25.9
		c0,9.3-1.6,17.8-4.8,25.5c-3.2,7.7-7.7,14.3-13.4,19.9c-5.7,5.6-12.5,9.9-20.4,13c-7.9,3.1-16.5,4.6-25.8,4.6
		c-9.2,0-17.7-1.5-25.5-4.6c-7.8-3.1-14.5-7.4-20.2-13c-5.7-5.6-10.1-12.2-13.3-19.9C370.1,311,368.5,302.5,368.5,293.2z
		 M391.6,293.2c0,6.4,1,12.3,2.9,17.6c2,5.3,4.8,10,8.4,13.9c3.6,3.9,8,7,13,9.2c5,2.2,10.5,3.3,16.6,3.3c6.1,0,11.6-1.1,16.7-3.3
		s9.4-5.2,13.1-9.2c3.6-3.9,6.5-8.6,8.4-13.9c2-5.3,2.9-11.2,2.9-17.6c0-6.2-1-11.9-2.9-17.2c-2-5.3-4.7-9.9-8.3-13.8
		c-3.6-3.9-7.9-7-13-9.3c-5.1-2.2-10.7-3.4-16.8-3.4c-6.2,0-11.8,1.1-16.8,3.4c-5,2.2-9.3,5.3-12.9,9.3c-3.6,3.9-6.4,8.5-8.3,13.8
		C392.5,281.3,391.6,287,391.6,293.2z"/>
</g>
<g class="st2">
	<path class="st0" d="M2.9,388.5h23c4.2,0,8.5,0.5,12.7,1.6c4.3,1.1,8.1,2.9,11.5,5.4c3.4,2.5,6.2,5.9,8.3,10
		c2.1,4.1,3.2,9.2,3.2,15.3c0,5.7-1.1,10.6-3.2,14.7c-2.1,4.1-4.9,7.4-8.3,10.1c-3.4,2.6-7.3,4.6-11.5,5.8
		c-4.3,1.3-8.5,1.9-12.7,1.9h-23V388.5z M24.1,443.3c3,0,6-0.4,9-1.1c3-0.7,5.7-1.9,8.1-3.6c2.4-1.7,4.4-4,5.9-6.8
		c1.5-2.9,2.3-6.5,2.3-10.9c0-4.6-0.8-8.4-2.3-11.4c-1.5-2.9-3.5-5.2-5.9-6.9c-2.4-1.6-5.1-2.8-8.1-3.4c-3-0.6-6-0.9-9-0.9h-9.6
		v44.9H24.1z"/>
	<path class="st0" d="M72.7,420.7c0-5.2,0.9-9.9,2.6-14.1c1.7-4.2,4.2-7.7,7.2-10.7c3.1-2.9,6.7-5.2,11-6.8
		c4.2-1.6,8.9-2.4,13.9-2.4c5.1,0,9.7,0.8,14,2.4c4.3,1.6,8,3.8,11.1,6.8s5.5,6.5,7.3,10.7c1.7,4.2,2.6,8.9,2.6,14.1
		c0,5.1-0.9,9.7-2.6,13.9c-1.7,4.2-4.2,7.8-7.3,10.8s-6.8,5.4-11.1,7.1c-4.3,1.7-8.9,2.5-14,2.5c-5,0-9.6-0.8-13.9-2.5
		c-4.2-1.7-7.9-4-11-7.1c-3.1-3-5.5-6.6-7.2-10.8C73.6,430.4,72.7,425.8,72.7,420.7z M85.3,420.7c0,3.5,0.5,6.7,1.6,9.6
		c1.1,2.9,2.6,5.4,4.6,7.6c2,2.1,4.3,3.8,7.1,5c2.7,1.2,5.7,1.8,9,1.8c3.3,0,6.3-0.6,9.1-1.8s5.1-2.9,7.1-5c2-2.1,3.5-4.7,4.6-7.6
		c1.1-2.9,1.6-6.1,1.6-9.6c0-3.4-0.5-6.5-1.6-9.3c-1.1-2.9-2.6-5.4-4.5-7.5c-2-2.1-4.3-3.8-7.1-5c-2.7-1.2-5.8-1.8-9.2-1.8
		c-3.4,0-6.4,0.6-9.1,1.8c-2.7,1.2-5.1,2.9-7,5c-2,2.1-3.5,4.6-4.5,7.5C85.8,414.3,85.3,417.4,85.3,420.7z"/>
	<path class="st0" d="M149.9,388.5h12.6l12.5,47.6h0.2l14.3-47.6h11.9l14,47.6h0.2l12.8-47.6h12.3l-19,64.8h-11.2l-15.2-48.6h-0.2
		L180,453.4h-11.2L149.9,388.5z"/>
	<path class="st0" d="M251.4,388.5h15.3l30.1,48.5h0.2v-48.5h11.5v64.8h-14.7l-30.8-50.1h-0.2v50.1h-11.5V388.5z"/>
	<path class="st0" d="M338.8,398.6H319v-10.1h51.3v10.1h-19.9v54.8h-11.5V398.6z"/>
	<path class="st0" d="M374.8,420.7c0-5.2,0.9-9.9,2.6-14.1c1.7-4.2,4.2-7.7,7.2-10.7s6.7-5.2,11-6.8c4.2-1.6,8.9-2.4,13.9-2.4
		c5.1,0,9.7,0.8,14,2.4c4.3,1.6,8,3.8,11.1,6.8c3.1,2.9,5.5,6.5,7.3,10.7c1.7,4.2,2.6,8.9,2.6,14.1c0,5.1-0.9,9.7-2.6,13.9
		c-1.7,4.2-4.2,7.8-7.3,10.8c-3.1,3-6.8,5.4-11.1,7.1s-8.9,2.5-14,2.5c-5,0-9.6-0.8-13.9-2.5c-4.2-1.7-7.9-4-11-7.1
		s-5.5-6.6-7.2-10.8C375.7,430.4,374.8,425.8,374.8,420.7z M387.4,420.7c0,3.5,0.5,6.7,1.6,9.6c1.1,2.9,2.6,5.4,4.6,7.6
		c2,2.1,4.3,3.8,7.1,5s5.7,1.8,9,1.8s6.3-0.6,9.1-1.8s5.1-2.9,7.1-5c2-2.1,3.5-4.7,4.6-7.6c1.1-2.9,1.6-6.1,1.6-9.6
		c0-3.4-0.5-6.5-1.6-9.3c-1.1-2.9-2.6-5.4-4.5-7.5c-2-2.1-4.3-3.8-7.1-5c-2.7-1.2-5.8-1.8-9.2-1.8c-3.4,0-6.4,0.6-9.1,1.8
		c-2.7,1.2-5.1,2.9-7,5c-2,2.1-3.5,4.6-4.5,7.5C387.9,414.3,387.4,417.4,387.4,420.7z"/>
	<path class="st0" d="M452,388.5h12.6l12.5,47.6h0.2l14.3-47.6h11.9l14,47.6h0.2l12.8-47.6h12.3l-19,64.8h-11.2l-15.2-48.6h-0.2
		l-15.2,48.6H471L452,388.5z"/>
	<path class="st0" d="M553.5,388.5h15.3l30.1,48.5h0.2v-48.5h11.5v64.8H596l-30.8-50.1h-0.2v50.1h-11.5V388.5z"/>
</g>
<path class="st0" d="M217.4,57.5c-31.1,52.4-13.8,120.1,38.7,151.1c52.4,31,120.1,13.7,151.1-38.7s13.7-120.1-38.7-151.1
	C316.1-12.3,248.5,5.1,217.4,57.5 M285.4,213.7L285.4,213.7c-55.2-14.9-88-71.7-73.1-126.9c14.8-55.2,71.6-88,126.9-73.1
	c55.2,14.8,88,71.6,73.1,126.9C397.5,195.8,340.7,228.6,285.4,213.7"/>
<path class="st0" d="M304.2,69c-2.1-22.2-15.9-37.5-35.8-37.5c-18.8,0-33.1,13.3-33.1,37.6c0,15.2,8.3,31.5,16.9,46.2
	c-4.8-2.5-11.1-6.4-16.5-12.6c-7.3,14.2-11.2,27-11.2,42.1c0,1.6,0.1,3.2,0.2,4.8c1.9,24.4,18.3,42.1,41.2,42.1
	c17.2,0,34.4-10.5,38.3-31.9v27h13.1v-50.5V37.8h-13.1V69z M255.8,137.9L255.8,137.9c0-5.3,0.5-9.2,1.9-13.6
	c6.1,9.9,11.5,18.8,13.4,25.5c0.4,1.6,0.7,3.1,0.7,4.5c0,2.9-1.7,5.7-4.8,5.7c-3.2,0-6.7-3.3-8.9-8.9
	C256.7,147.5,255.8,143.1,255.8,137.9 M304.2,142.7L304.2,142.7c-0.1-0.4-0.2-0.7-0.2-1.1c-5.9-27.4-36.4-59.2-36.4-77.6
	c0-2.8,1.4-3.7,2.6-3.7c5.9,0,9.9,21.3,12.1,33.7c2.4-5,5.6-8.7,8.7-11.5c-0.8-18-10.6-36.3-23.3-36.3c-8.7,0-14.1,6.2-14.1,16.6
	c0,25.8,31,59.4,36.3,83.2c0.5,2.2,0.8,4.3,0.8,6.4c0,15.1-10.2,24.9-23.8,24.9c-13,0-24.4-9.9-27.6-26.3c-0.6-3-0.9-6.2-0.9-9.6
	c0-8.7,3.2-18.8,7.2-25.5c-3.4,10-3.7,18.6-3.7,22.5c0,4.7,0.5,9,1.5,12.8c3.6,14.5,13.4,22.8,23.9,22.8c9.3,0,18.9-7,18.9-20.4
	c0-2-0.3-4.2-0.8-6.5c-5.5-23.4-36-57.9-36-82.2c0-13.3,7.5-22,18.6-22c14.4,0,25,15.3,27.6,36.2c4.2-2.6,7.6-3.8,8.7-4v66.4v1.2
	H304.2z"/>
<polygon class="st0" points="371.2,37.8 371.2,93.1 371.2,186.6 384.3,186.6 384.3,73.2 384.3,37.8 "/>
<path class="st0" d="M344.3,103c-3.6,0-12.3-39.3-14.7-65.2h-9.5c2.7,44.3,11.6,74.8,18.8,85.7c2,3,3.8,4.5,5.3,4.5
	c3.1,0,7.5-6.4,11.6-18.3c5.4-15.4,10.6-40.1,12.5-72h-9.5C356.6,63.7,347.8,103,344.3,103"/>
<path class="st0" d="M365.8,84.3c-1.1,7.2-2.4,13.8-4,19.6c-4.9,18.5-11.6,29.8-17.6,29.8c-3,0-6.1-2.8-9.1-7.7
	c-5-8.4-9.7-23-12.5-41.7c-0.3-1.2-1.2-1.4-1.2,0.8V134v52.6h12.8v-41.5c3.2,6.7,6.5,11,10,11s6.8-4.2,10-11v41.5H367V98.2V85.1
	C367,82.9,366.1,83.1,365.8,84.3"/>
<path class="st1" d="M450.7,322c-5-0.7-10.2-1.2-15.5-1.4c-2.6-0.1-5.2-0.2-7.8-0.3v16.8c38.5-1,81.1,5.4,123,26.7
	C550.4,363.8,511.1,330,450.7,322z"/>
</svg>
