<svg xmlns="http://www.w3.org/2000/svg" xmlns:xlink="http://www.w3.org/1999/xlink" viewBox="0 0 446 84" xml:space="preserve">
<style type="text/css">
	.st0{fill:#111111;}
</style>
<g>
	<g>
		<path class="st0" d="M16.3,24.3h12.9v35h5.4v-35h12.9v-5.1H16.3V24.3z M58.8,41.4h19.1v-5.1H58.8v-12h20.5v-5.1H53.4v40.1h26.9
			v-5.1H58.8V41.4z M117.4,52.2h-0.1l-22.1-33H88v40.1h5.4v-33h0.1l22.3,33h6.9V19.2h-5.4V52.2z M145.7,19.2l-17.7,40.1h6.4l4-9.9
			h19.1l4,9.9h6.4l-17.2-40.1H145.7z M140.3,44.7l7.6-18.4h0.1l7.5,18.4H140.3z M202.4,52.2h-0.1l-22.1-33h-7.1v40.1h5.4v-33h0.1
			l22.3,33h6.9V19.2h-5.4V52.2z M213.7,19.2v5.1h12.9v35h5.4v-35H245v-5.1H213.7z"/>
	</g>
</g>
<g>
	<g>
		<path d="M262.9,36.5l0.2-0.5C263,36,263,36.2,262.9,36.5z M262.6,37.1l-0.1,0.1c0,0,0,0.1,0,0.1C262.6,37.2,262.6,37.2,262.6,37.1
			z M262.5,37.4c0,0,0-0.1,0-0.1C262.5,37.3,262.5,37.3,262.5,37.4L262.5,37.4z M290.7,57.5l-0.1-0.7c0-0.1-0.1-0.1-0.1-0.2
			L290.7,57.5z M291,58.1c0-0.1-0.1-0.1-0.1-0.1C290.9,58,291,58,291,58.1z M292.9,36.4L292.9,36.4
			C292.9,36.3,292.9,36.4,292.9,36.4z M293.2,36.9c0.3,0.3,0.9,0.3,1.5,0.4c-0.5-0.1-1-0.2-1.3-0.5c0,0-0.4-0.3-0.5-0.5
			C292.9,36.6,293,36.9,293.2,36.9z M335.5,39.2c-0.1,0,0,0.4,0,1V39.2z M361.7,25.8c0,0,0.1-0.1,0.3-0.4L361.7,25.8z M360.8,29.7
			c0.1,0.2-0.1,0.5,0.4,0.7c0.5,0.2,0.7-0.1,1.1-0.2c0.8-0.3,1.4-1.2,2-1.7c0.2-0.1-0.2-0.1-0.2-0.1c0.8-0.8,0.1,0.1,0.9-0.3
			c0.8-0.5,0.9-1.4,1.6-2.1c-0.8,0.3-1.4,0.8-1.9,1.4c-0.7,0.8-1.1,1.2-1.8,1.7c0.8-0.6,1.2-1.2,1.8-2.2c0.2-0.2,0.4-0.3,0.7-0.5
			c-0.2-0.2-0.2-0.4,0.1-0.6c0.2-0.3,0.6-0.5,0.8-0.8c0.3-0.5,0.3-1,0.7-1.5c0.3-0.3,0.8-0.5,1-0.7c0.6-0.5,1.2-1.5,1-2.4
			c-0.3-0.8-0.9-1.8-1.6-2.2c-0.8-0.5-2-0.7-2.9-0.3c-0.2,0.1-1,0.3-0.7,0.5c0.1,0.1,0.1,0.1,0.3,0.1c-0.6,0.5-1.6,1.2-0.2,1.8
			c-0.1,0.1,0,0.7,0,0.8c-0.1,0.5-1,2.9-1.6,4.1l0.8-1.2c-0.5,1-1,1.9-1.6,2.7c0.4-0.8-0.4,0.1-0.4,0.3c-0.7-0.3-0.5,1.7-0.5,1.9
			C360.4,29.1,360.8,29.7,360.8,29.7z M361.1,27.1c0,0.1,0,0.1-0.1,0.1c0,0,0-0.1-0.1-0.1C361,27.1,361,27.1,361.1,27.1z M430,38.3
			c-0.8,0.6-1.1,1.5-1.7,2.2c-1,1.1-2.3,2.1-3.6,2.7c-0.7,0.3-1.2,0.8-1.8,1.1c-0.7,0.5-1.8,0.3-2.6,0.3c1-2.4,1.6-5,3.1-7.2
			c0.7-0.8,1.4-1.8,1.1-3c-0.3-0.8-1-1.4-1.8-1c-0.2,0.1-0.3,0.3-0.5,0.4c-1.1,1-2.4,2.4-3.2,3.7c-0.8,1.2-1.3,2.5-1.6,4
			c-0.1,0.3-0.1,3.7-0.2,3.7l0.3-0.2c0.1,0.4-1.3,2.2-1.6,2.7c-0.7,1.3-1.4,2.6-2.2,3.9c-0.7,1.1-2.5,5.7-4.1,5.5
			c-3.3-0.3,1.2-14.1,1-14.1c-0.3-0.1-1.8,6.3-2,7.5c0.6-3.7,1.6-7.5,2.8-11c-0.1,0.3-0.2,0.8-0.1,0.8c0.3,0.1,1.1-2.5,1-2.5
			l-0.3,0.2c0.2-0.3,0.7-0.5,0.7-0.9c0.1-0.8-0.4-1.4-1-1.8c-1.4-1-3.2-0.4-4.2,0.8c-0.8,1-1.4,2.2-2.2,3.3
			c-0.7,0.9-1.3,1.8-1.9,2.7c-0.2,0.3-1.8,2.7-1.6,2.7c0.1-0.1,0.3-0.1,0.4-0.3c-1.2,1.6-3.1,3.5-4.7,5c-0.7,0.6-2.2,2.5-3.3,2.4
			c-3.3-0.6,3.1-13.7,3-13.7c-0.2-0.1-2.5,5.9-2.7,6.3c1.1-3.3,2.5-6.4,4-9.5c0.1,0-0.3,1-0.3,1c0.2,0.1,1.2-2.1,1-2.2l-0.2,0.2
			c0.2-0.3,0.5-0.4,0.6-0.8c0.2-0.8-0.4-1.5-1-1.9c-1.5-1-3.7-0.2-4.4,1.3c-0.2,0.3-0.1,0.7-0.5,1c-0.1,0.2-0.7,0.4-0.9,0.8
			c-0.5,0.8-0.9,1.8-1.2,2.8c-0.8,0.1-1.7,1.5-2.1,2.1c-1.1,1.5-2.2,2.9-3.3,4.3c-1,1.2-2,2.4-2.8,3.6c0,0.1-0.1,0.5-0.1,0.5
			c-0.3,0.4-0.7,0.7-1,1.1c-0.6,0.6-1.2,1.2-1.8,1.8c-1,0.9-6.5,6.1-7.2,2.7c-0.4-1.6,0.1-3.7,0.5-5.2c0.2-0.8,0.4-1.6,0.5-2.5
			c0.1-0.7-0.1-1.3,0.3-2c0.2-0.4,0.3-0.3,0.7-0.5l1.1-0.4c0.7-0.3,1.4-0.5,2.1-0.9c1-0.6,1.9-1.3,2.7-2c2-1.7,4.2-3.7,5-6.3
			c0.5-1.4,0.5-3-0.4-4.2c-0.8-1.1-2.3-1.7-3.6-2c-3.5-0.7-6.2,1.4-8.2,4.1c-1.7,2.1-3.1,4.6-4,7.2c-1.2,1.4-2.9,3.8-2.7,4
			c0.2,0,0.3,0,0.5-0.1c-0.9,1.1-2.6,2.4-3.9,3.3c-0.7,0.6-2.5,2.2-3.5,1.7c-2.2-1.1,2.3-9,2.1-9c-0.2-0.1-1.8,3.6-2.2,4.4
			c0.8-2.3,1.8-4.6,3.1-6.6c-0.1,0.2-0.3,0.5-0.1,0.5c0.1,0.1,1.1-1.3,0.9-1.4c-0.1,0-0.2,0-0.3,0.1c0.2-0.2,0.5-0.3,0.5-0.7
			c0-0.7-1.5-1.3-2-1.5c-1.2-0.5-2.5-0.7-3.5,0c-1.3,0.8-1.6,2.4-2.1,3.7c-0.1,0.2-0.4,1.4-0.7,2.6c-0.7,0.7-1.3,1.4-1.3,1.5
			c-0.8,0.7-1.5,1.2-2.4,1.7c-0.9,0.4-1.8,1.3-2.7,1.4c-0.5,0.1-1.8,0.2-2.4-0.1c-1.1-0.6,0.1-2.6,0.4-3.5c0.1-0.1-0.2-0.1-0.1-0.5
			l0.4-0.3l1.2-1.2c1.1-1.2,2.6-1.7,3.8-2.7c0.4-0.3,0.7-0.6,0.8-1.1c0.3-2.1-2.7-2.2-3.9-1.3c-2,1.2-3.2,3.1-4.6,4.6l-2.2,2.2
			c-0.8,1-2,1.8-2.7,3c-0.3,0.4-0.3,0.8-0.7,1.3c-0.4,0.4-0.8,0.8-1.2,1.3c-0.8,1-1.5,2-2.2,3.1c0.1-0.7-0.5-5.5-0.7-8.2
			c0,0.8,0.1,1.6,0.1,1.8l-0.1-2c0,0.1,0,0.1,0.1,0.1c0-0.1-0.1-0.1-0.1-0.3v0.1c-0.1-1.1-0.3-2.3-0.6-3.4l0.2,0.5
			c0.1,0.1,0-0.8-0.1-1c-0.1-0.2-0.4-0.1-0.3,0.1c-0.2-0.4,0.1-0.5-0.3-1c-0.5-0.7-1.6-0.7-2.3-0.4c-0.6,0.2-1.1,0.7-1.4,0.9
			c-0.7,0.4-1.3,0.5-1.6,1.5c-0.1,0.3,0,1,0.2,1.7c-1,1.4-2,2.8-3.1,4c-1,1.2-2,2.4-2.8,3.6c0,0.1-0.1,0.5-0.1,0.5
			c-0.3,0.4-0.7,0.7-1,1.1c-0.6,0.6-1.2,1.2-1.8,1.8c-1,0.9-6.5,6.1-7.2,2.7c-0.4-1.6,0.1-3.7,0.5-5.2c0.2-0.8,0.4-1.6,0.5-2.5
			c0.1-0.7-0.1-1.3,0.3-2c0.2-0.4,0.3-0.3,0.7-0.5l1.1-0.4c0.7-0.3,1.4-0.5,2.1-0.9c1-0.6,1.9-1.3,2.7-2c2-1.7,4.2-3.7,5-6.3
			c0.5-1.4,0.5-3-0.4-4.2c-0.8-1.1-2.3-1.7-3.6-2c-3.5-0.7-6.2,1.4-8.2,4.1c-2,2.4-3.5,5.3-4.5,8.4l-3.1,4.1l-3.5,4.6l-1.9,2.4
			c-0.2,0.3-1.6,2.1-1.5,2.1c0.1-0.1,0.3-0.1,0.5-0.3c-1,1-4.6,4.3-5.2,3.5c-0.5-0.7,0.9-3.4,1.1-4.1c0.7-1.9,1.4-3.9,2.2-5.7
			c0.8-1.9,1.8-3.8,2.6-5.7c0.8-2-0.4-2.7-2.3-3.2c-0.8-0.2-1.9-0.2-2.9-0.3c0,0.1,0.1,0.1,0.1,0.1c0.8,0.1,2.1,0.2,3.1,0.5
			c-1.6-0.5-3.5-0.3-4.8-0.6c-0.8-0.2-1.4-0.2-1.2-1.2c0.1-1.3,1.5-2.7,2-3.9c0,0.1-0.5,1.2-0.4,1.2c0.3,0.1,0.8-1.7,0.8-2
			c-0.1-0.3-0.8-1.3-0.9-0.9l0.1,0.2c-3.1-2.2-6.9,2.3-6.2,5.5c0.1,0.5,0.4,0.7,0.6,1.2c0,0.1,0.1,0.3,0.1,0.5c-1.1,0.3-3,1-2.8,1.4
			c0,0.1,0.1,0.1,0.2,0.1c-1.1,0.5-2.5,0.5-3.7,1.2c-1.2,0.8-2.4,1.7-3.7,2.4c1.2-2,2.3-4.2,3-6.3c0.3-0.8,1.8-5.6,0.8-6.1
			c-0.1-0.1-0.2,0.5-0.3,0.8c0.1-2.6-0.8-6.6-4.3-6.9c-2.2-0.1-4.2,2.5-5.4,4c-2.7,3.4-5,7.1-7.4,10.6c-0.7,1-7.2,11.6-7.2,11.6
			s0.5-0.7,1-1.5c-0.6,1-1.2,2-1.7,3.1c0.3-1,2.7-8.8,4.3-13.3c0.1-0.2,0.2-0.5,0.3-0.7l0.4-1.1l0.1-0.1c0.6-1.7,1.1-3.4,1.6-5.2
			c0,0.2-0.3,1.2-0.2,1.2c0.4,0.1,0.9-2.7,0.7-2.7l-0.2,0.3c0.2-1,0.5-1.4-0.1-2.5c-0.5-1-1.2-1.9-2.4-2.2c-2.2-0.6-3.2,1.2-3.1,2.9
			c0,0.3,0.3,0.4,0.3,0.7c0,0.3-0.3,0.9-0.4,1.2c-0.5,1.4-0.8,2.7-1.3,4c-0.3,0.7-2.7,7.5-2.7,7.5c0.1-0.1,0.2-0.2,0.3-0.3
			c-0.2,0.6-0.4,1.2-0.7,1.8c-0.1-0.1,0.2-0.5,0.1-0.5c-0.7-0.1-2.3,5.4-2.4,5.9c-0.3,1.2-0.6,2.4-1,3.7c-0.2,0.7-0.5,1.3-0.7,2
			c0,0.1-0.3,1.6,0,1c-0.1,0.2-0.1,0.3-0.1,0.5c0-0.1-0.1-0.1-0.1-0.2c-0.2,0.1-0.3,1.4-0.3,1.5c-0.3,0.7-0.6,1.2-0.9,1.9
			c-0.8,2.1-1.3,4.4-1.6,6.6c-0.5,3.4-2.1,8.5-0.4,11.6c0.6,1.1,2.4,3.4,3.9,2c0.7-0.7,0.7-2.2,0.7-2.9c0.4-2.2,0.7-4.4,1.2-6.5
			l0.6-3c0.1-0.1,0.6-2.5,0.4-2.5c-0.1,0.1-0.3,0.3-0.3,0.5c0.3-1,0.8-2,1.2-3.1c0.5-1.6,0.9-3.1,1.7-4.5c0.9-1.4,1.7-3,2.5-4.4
			c0.7-1.2,1.2-2.7,2-3.7c0.2-0.3,0.6-0.4,0.9-0.7c0.7-0.7,1.1-1.7,1.6-2.5c1-1.6,1.8-3.1,2.9-4.6c0.5-0.7,5.7-8,6.2-8.4
			c-0.1,0.1-0.3,0.1-0.4,0.3c0.5-0.7,1.1-1.2,1.6-1.8c0.1,0.1-0.4,0.5-0.3,0.5c0.1,0.1,3.1-2.3,3.7-2.4c1.4-0.3,0.9,2.5,0.7,3.2
			c-0.3,1.5-1.2,2.9-1.9,4.2c-0.4,0.7-0.8,1.4-1.1,2.1c-0.1,0.1-0.6,1.3-0.4,1.2l-0.4,0.6c0.1-0.2,0.2-0.5,0.2-0.5
			c-0.3,0-0.6,1.1-0.7,1.3c-0.4,0.7-0.9,1.2-1.4,1.7c-1.4,1.6-2.6,3.2-4,4.7c-1,1.1-2.4,3.1-4,3.5c-1.1,0.3-2-0.3-1.4,1.4
			c0.4,1.2,1.8,4.1,3.4,4.1c1.4,0,3.2-2.2,4.1-3.1c1-1.1,2.1-2.2,3.1-3.3c0.3-0.4,3.3-4,3.7-4.2H277c0.7-0.3,1.3-0.1,2.2-0.7
			c0.5-0.4,0.8-0.8,1.4-1.2c0.5-0.3,0.7-0.6,0.8-0.8c0,0,0,0.1,0.1,0.1c0.7-0.7,1.6-0.5,2.4-1c1-0.7,2.4-1.6,3.3-2.5
			c0.7-0.7,1.6-1.1,2.4-1.8c1.4,1.4,3.7,1.5,5.5,1.1c-0.3,0.5-3.8,7.8-3.6,7.8l-0.5,1.6c-0.1-0.1,0.2-0.6,0.1-0.6
			c-0.5-0.1-1.4,3.7-1.4,4.1c-0.3,1.6-0.2,2.9,0.5,4.4c0.4,0.9,0.8,1.7,1.7,2.2c0.8,0.5,1.8,0.8,2.7,0.6c0.3-0.1,1.6-1,1.2-0.9
			l0.5-0.2c-0.1,0.1-0.1,0.1-0.1,0.2c0.2,0.1,3.2-2.4,3.6-2.6c2.1-1.8,3.8-3.9,5.4-6.1c1.1-1.5,2.1-3,3.2-4.5
			c-0.1,0.5-0.2,1.1-0.3,1.6c-0.3,2-0.5,3.8,0.5,5.6c-0.1-0.7-0.2-1.2-0.2-1.8c0-0.3,0.1-0.7,0.1-0.9c0-0.1-0.1-0.5-0.1-0.7
			c0-0.6,0.1-1,0.3-1.6c0.1-0.6,0-1.2,0.1-1.8c0.1-0.7,0.3-1.2,0.6-1.8c0,0,0,0,0,0c0.2-0.2,0.3-0.5,0.5-0.7
			c0.1-0.1,0.1-0.2,0.2-0.3c0,0.4,0,0.7,0,1c-0.1,0.8-0.4,1.7-0.5,2.6c-0.1,0.8-0.5,1.6-0.7,2.5c-0.1,0.8-0.4,1.4-0.3,2.2
			c0,0.5,0.1,0.9,0.1,1.3c0.1,0.5,0.4,0.8,0.7,1.2c1.1,1.3,2.6,2.4,4.3,2.8c1.2,0.3,2.2,0.3,3.3-0.3c1.6-0.8,2.9-2.2,4.1-3.4
			c1.1-1.2,2-2.6,2.9-3.9c0.9-1.2,2-2.3,2.9-3.5l3.1-4.1c0,0.2,0,0.3,0,0.4l0.1-0.1c0.1,0.3,0.1,0.5,0.1,0.7c-0.1,0-0.1-0.1-0.1-0.2
			c0,0-0.3,0.8-0.3,0.9c-0.2,0.9,0,1.4,0.1,2.3c0.1,0.7,0,1.3,0,2c0,0.7,0.1,0.8,0.2,1c-0.1-0.1,0.1,1,0.1,1
			c-0.1,0.7-0.5,1.4-0.5,2.2c-0.1,2.1-0.3,4.9,1.5,6.2c1.2,0.9,3,1.2,4-0.3c0.4-0.7,0.5-1.4,0.6-2.2c0.4-2,1.1-3.5,2.2-5.2
			c2-3.2,4.7-5.6,6.9-8.6c-0.2,6.2,7.2,4.5,10.4,1.6c0,0.6,0,1.2,0.1,1.4c0.3,1.2,1.2,2,1.9,3c0.4,0.6,0.8,1.2,1.4,1.6
			c0.8,0.6,0.3,0,0.8,0.3h-0.1c-0.1,0.4,2.4,1,2.9,1c2.3-0.5,3.9-3.3,5.2-5.1c0.3-0.4,0.6-0.8,0.9-1.2c-0.2,1-0.3,1.9-0.5,2.9
			c-0.3,2-0.5,3.8,0.5,5.6c-0.1-0.7-0.2-1.2-0.2-1.8c0-0.3,0.1-0.7,0.1-0.9c0-0.1-0.1-0.5-0.1-0.7c0-0.6,0.1-1,0.3-1.6
			c0.1-0.6,0-1.2,0.1-1.8c0.1-0.7,0.3-1.2,0.6-1.8c0.2-0.5,0.3-1,0.5-1.5c0-0.1,0.1-0.2,0.1-0.3c0.1-0.1,0.2-0.2,0.2-0.3
			c-0.1,0.7,0,1.4-0.1,2.1c-0.1,0.8-0.4,1.7-0.5,2.6c-0.1,0.8-0.5,1.6-0.7,2.5c-0.1,0.8-0.4,1.4-0.3,2.2c0,0.5,0.1,0.9,0.1,1.3
			c0.1,0.5,0.4,0.8,0.7,1.2c1.1,1.3,2.6,2.4,4.3,2.8c1.2,0.3,2.2,0.3,3.3-0.3c1.6-0.8,2.9-2.2,4.1-3.4c1.1-1.2,2-2.6,2.9-3.9
			c0.9-1.2,2-2.3,2.9-3.5l3-3.9c-0.5,1.5-0.9,2.9-0.8,2.9c0,0,0.1-0.1,0.1-0.1c-0.1,0.4-0.2,0.9-0.3,1.4c-0.1,0,0.1-0.4-0.1-0.4
			c-0.4-0.1-0.9,3.3-0.9,3.4c-0.1,1.3,0.3,2.5,0.8,3.7c0.5,0.7,0.9,1.3,1.7,1.6c0.5,0.2,1,0.3,1.5,0.2c0.1,0,1.3-0.4,0.8-0.4
			l0.7-0.2l-0.4,0.2c0.1,0.1,1.9-0.8,2.2-0.9c1.4-0.6,2.5-1.6,3.6-2.6c2-2.2,3.8-4.8,5.6-7.2c-0.1,0.7-1.8,8.9-1.3,8.9l0.1-0.3
			c0,0.6,0,1.2,0.1,1.7c-0.1,0-0.1-0.5-0.2-0.5c-0.4,0.1,0.1,2.8,0.1,3.1c0.3,1.1,0.8,2.2,1.9,2.7c1,0.5,2.6,0.6,3.8,0.4
			c0.8-0.1,1.6-0.5,2.3-1c0.1-0.1,1-1,0.7-1l0.3-0.2c-0.1,0.1-0.1,0.1-0.1,0.2c0.1,0.1,2-2,2.3-2.2c1.2-1.1,2.2-2.7,2.9-4.2l1.1-2.4
			l0.5-1.3c0.2-0.3,0.3-0.7,0.5-1c0.1,0,0.3,0.1,0.5,0.1c1.3-0.3,2.6,0.2,3.9-0.3c2.7-0.8,4.7-3.2,6.5-5.1c0.5-0.5,2.3-2,2.2-3
			C432.3,37.3,430.7,37.9,430,38.3z M376.3,38.6c0.1-0.1,0.1-0.2,0.1-0.2c1-2.1,1.7-4.3,3.1-6.3l1.2-1.6c0.3-0.3,0.7-0.9,1.2-1
			c1-0.2,1.2,1.5,1.2,2.2l-0.3,1.4c-0.1,0.4,0.1,0.7,0,1c-0.1,0.4-0.5,0.6-0.7,0.9l-1.1,1.4c-1.5,1.8-3.4,3.3-5.5,4.4
			C375.8,40,376,39.2,376.3,38.6z M316.5,38.6c0.1-0.1,0.1-0.2,0.1-0.2c1-2.1,1.7-4.3,3.1-6.3l1.2-1.6c0.3-0.3,0.7-0.9,1.2-1
			c1-0.2,1.2,1.5,1.2,2.2l-0.3,1.4c-0.1,0.4,0.1,0.7,0,1c-0.1,0.4-0.5,0.6-0.7,0.9l-1.1,1.4c-1.5,1.8-3.4,3.3-5.5,4.4
			C316,40,316.2,39.2,316.5,38.6z M300,42L300,42l-1.4,2.9L300,42z M259.5,45.6C259.5,45.7,259.4,45.7,259.5,45.6L259.5,45.6z
			 M259.1,46.4c-0.2,0.8-0.4,1.5-0.7,2.2C258.7,47.9,258.9,47.1,259.1,46.4z M248.8,65.8c0-0.1,0-0.1,0.1-0.1
			C248.9,65.8,248.9,65.8,248.8,65.8z M256.2,44.5c-0.1,0.8-0.7,1.8-1,2.6c-0.5,1.2-0.8,2.5-1.2,3.7c-0.8,2.6-1.8,5.2-2.9,7.7
			c-0.8,2.1-1.6,4.4-2.2,6.7c0.7-3.2,1.9-6.3,2.8-9.3c0.8-2.7,2.2-5.4,3.2-8.1c0.1-0.3,1.4-2.9,1.2-3.5
			C256.2,44.4,256.2,44.5,256.2,44.5L256.2,44.5z M266,38.7L266,38.7c0.1-0.1,0.1-0.1,0.1-0.2C266.2,38.4,266.1,38.6,266,38.7z
			 M266.8,37.5c0.4-0.6,0.8-1.2,1.2-1.8L266.8,37.5z M278.7,43.6c0.1-0.2,0.4-0.3,0.6-0.4L278.7,43.6z M291.5,59
			C291.5,59,291.5,59,291.5,59c-0.4-0.4-0.9-1.5-1-1.7c-0.1-0.4-0.2-0.9-0.2-1.4c0-0.4,0-0.8,0-1.1c0-0.7,0.1-1.2,0.2-1.8v-0.1
			c0-0.1,0.1-0.1,0.1-0.1c0,0.1-0.1,0.1-0.1,0.2V53c-0.1,0.8-0.2,1.7-0.1,2.6V56c-0.1-0.1-0.1-0.1-0.1-0.1s0,0.1,0.1,0.2v0.1
			l0.1,0.7c0.2,0.4,0.4,1,0.7,1.6l-0.1-0.1c0,0.1,0.1,0.1,0.1,0.2v-0.1c0.4,0.5,0.9,1,1.6,1.3C292.4,59.6,291.9,59.3,291.5,59z
			 M293.9,43.9l-1.2,2.9c-0.7,1.6-1.4,3.2-1.8,4.9c0.5-2,1.2-3.9,2-5.7c0.5-1.2,1-2.3,1.6-3.4c0.1-0.2,1-2.5,1.5-2.7
			C295.6,40.1,294.3,43.3,293.9,43.9z M334.7,47c-0.1,0-0.1-0.1-0.1-0.3C334.8,46.8,334.8,46.8,334.7,47z M335.1,41.3
			c-0.1,1.6-0.1,3.1-0.3,4.6c0.1-1.2-0.1-2.7-0.1-4c0.1-1.1,0.1-2.1-0.1-3.2c-0.1-0.5-0.1-1-0.3-1.5c-0.1-0.3-0.5-0.7-0.5-0.9
			c0-0.2,0.6,0.7,0.7,0.7c0.2,0.3,0.3,0.8,0.3,1.2C335.1,39.2,335.2,40.3,335.1,41.3z M335.7,45.4v-1
			C335.8,44.7,335.8,45.1,335.7,45.4z M359.6,45.3l-0.1,0.4l0.1-0.5C359.6,45.1,359.6,45.1,359.6,45.3L359.6,45.3z M393.1,48.7
			l0.5-2.1L393.1,48.7C393.2,48.6,393.1,48.7,393.1,48.7z M403.7,52.6c0.1-1.6,0.6-3.2,1-4.8c-0.3,1.8-0.6,3.6-0.7,5.3
			c-0.1,2.1-0.1,5.4,2,6.5C403.7,58.5,403.5,54.9,403.7,52.6z M407,41.1C406.9,41.2,406.9,41.2,407,41.1c-0.5,0.9-0.8,1.8-1.2,2.7
			c0.4-1.4,0.8-2.7,1.8-3.8C407.4,40.3,407.1,40.7,407,41.1z"/>
	</g>
</g>
</svg>
